HIERARCHY
ROOT hip
{
	OFFSET 0.000000 0.000000 0.000000
	CHANNELS 6 Xposition Yposition Zposition Xrotation Zrotation Yrotation 
	JOINT abdomen
	{
		OFFSET 0.000000 3.422050 0.000000
		CHANNELS 3 Xrotation Zrotation Yrotation 
		JOINT chest
		{
			OFFSET 0.000000 8.486693 -0.684411
			CHANNELS 3 Xrotation Zrotation Yrotation 
			JOINT neck
			{
				OFFSET 0.000000 10.266162 -0.273764
				CHANNELS 3 Xrotation Zrotation Yrotation 
				JOINT head
				{
					OFFSET 0.000000 3.148285 0.000000
					CHANNELS 3 Xrotation Zrotation Yrotation 
					End Site
					{
						OFFSET 0.000000 3.148289 0.000000
					}
				}
			}
			JOINT lCollar
			{
				OFFSET 3.422053 6.707223 -0.821293
				CHANNELS 3 Yrotation Zrotation Xrotation 
				JOINT lShldr
				{
					OFFSET 3.285171 0.000000 0.000000
					CHANNELS 3 Zrotation Yrotation Xrotation 
					JOINT lForeArm
					{
						OFFSET 10.129278 0.000000 0.000000
						CHANNELS 3 Yrotation Zrotation Xrotation 
						JOINT lHand
						{
							OFFSET 8.486692 0.000000 0.000000
							CHANNELS 3 Zrotation Yrotation Xrotation 
							End Site
							{
								OFFSET 4.106464 0.000000 0.000000
							}
						}
					}
				}
			}
			JOINT rCollar
			{
				OFFSET -3.558935 6.707223 -0.821293
				CHANNELS 3 Yrotation Zrotation Xrotation 
				JOINT rShldr
				{
					OFFSET -3.148289 0.000000 0.000000
					CHANNELS 3 Zrotation Yrotation Xrotation 
					JOINT rForeArm
					{
						OFFSET -10.266159 0.000000 0.000000
						CHANNELS 3 Yrotation Zrotation Xrotation 
						JOINT rHand
						{
							OFFSET -8.349810 0.000000 0.000000
							CHANNELS 3 Zrotation Yrotation Xrotation 
							End Site
							{
								OFFSET -4.106464 0.000000 0.000000
							}
						}
					}
				}
			}
		}
	}
	JOINT lThigh
	{
		OFFSET 5.338403 -1.642589 1.368821
		CHANNELS 3 Xrotation Zrotation Yrotation 
		JOINT lShin
		{
			OFFSET -2.053232 -20.121670 0.000000
			CHANNELS 3 Xrotation Zrotation Yrotation 
			JOINT lFoot
			{
				OFFSET 0.000000 -19.300380 -1.231939
				CHANNELS 3 Xrotation Yrotation Zrotation 
				End Site
				{
					OFFSET 0.000000 -2.463878 4.653993
				}
			}
		}
	}
	JOINT rThigh
	{
		OFFSET -5.338403 -1.642589 1.368821
		CHANNELS 3 Xrotation Zrotation Yrotation 
		JOINT rShin
		{
			OFFSET 2.053232 -20.121670 0.000000
			CHANNELS 3 Xrotation Zrotation Yrotation 
			JOINT rFoot
			{
				OFFSET 0.000000 -19.300380 -1.231939
				CHANNELS 3 Xrotation Yrotation Zrotation 
				End Site
				{
					OFFSET 0.000000 -2.463878 4.653993
				}
			}
		}
	}
}
MOTION
Frames: 8
Frame Time: 0.033306
0.000000 1.995800 -32.004837 -63.002171 0.000000 0.000000 -6.002029 0.000000 0.000000 19.998167 0.000000 0.000000 30.999151 0.000000 0.000000 -9.630189 -0.001652 21.999151 0.000000 0.000000 0.000000 -76.018272 40.998165 -0.007638 -146.043335 -4.999469 -0.004302 0.000000 0.000000 0.000000 10.999558 0.000000 0.000000 83.997696 22.000610 29.998957 101.998291 4.997882 1.002604 54.999287 -1.002287 -42.001686 -57.004147 41.998764 31.995502 71.996620 0.000462 2.284555 14.998732 -0.002847 -0.999614 -57.001446 -50.004776 -35.000286 71.996696 -0.000681 -2.285956 20.996786 0.000000 0.000000 
0.000000 1.995800 -32.004837 -63.002171 0.000000 0.000000 -6.002029 0.000000 0.000000 19.998167 0.000000 0.000000 30.999151 0.000000 0.000000 -10.355163 -0.001666 21.999151 0.000000 0.000000 0.000000 -76.018272 40.998165 -0.007638 -146.043335 -4.999469 -0.004302 0.665894 0.000000 0.000000 10.999558 0.000000 0.000000 83.997696 22.000610 29.998957 101.998291 4.997882 1.002604 53.946362 0.184372 -41.846020 -57.004147 41.998764 31.995502 71.996613 0.000469 2.317206 14.998732 -0.002847 -0.999614 -57.001446 -50.004776 -35.000286 71.996689 -0.000691 -2.318627 20.996786 0.000000 0.000000 
0.000000 1.995800 -32.004837 -63.002171 0.000000 0.000000 -6.002029 0.000000 0.000000 19.998167 0.000000 0.000000 30.999151 0.000000 0.000000 -11.079790 -0.001679 21.999147 0.000000 0.000000 0.000000 -76.018272 40.998165 -0.007638 -146.043350 -4.999469 -0.004302 1.332081 0.000000 0.000000 10.999558 0.000000 0.000000 83.997696 22.000610 29.998957 101.998291 4.997882 1.002604 52.893692 1.376710 -41.711834 -57.004147 41.998764 31.995502 71.996605 0.000476 2.349857 14.998730 -0.002847 -0.999614 -57.001446 -50.004776 -35.000286 71.996681 -0.000701 -2.351298 20.996786 0.000000 0.000000 
0.000000 1.995800 -32.004837 -63.002171 0.000000 0.000000 -6.002029 0.000000 0.000000 19.998167 0.000000 0.000000 30.999151 0.000000 0.000000 -11.804009 -0.001692 21.999144 0.000000 0.000000 0.000000 -76.018272 40.998165 -0.007638 -146.043335 -4.999469 -0.004302 1.998517 0.000000 0.000000 10.999558 0.000000 0.000000 83.997696 22.000610 29.998957 101.998291 4.997882 1.002604 51.840801 2.573896 -41.599270 -57.004147 41.998764 31.995502 71.996620 0.000482 2.382509 14.998732 -0.002847 -0.999614 -57.001446 -50.004776 -35.000286 71.996696 -0.000710 -2.383969 20.996786 0.000000 0.000000 
0.000000 1.995800 -32.004837 -63.002171 0.000000 0.000000 -6.002029 0.000000 0.000000 19.998167 0.000000 0.000000 30.999151 0.000000 0.000000 -12.527772 -0.001706 21.999142 0.000000 0.000000 0.000000 -76.018272 40.998165 -0.007638 -146.043335 -4.999469 -0.004302 2.665155 0.000000 0.000000 10.999558 0.000000 0.000000 83.997696 22.000610 29.998957 101.998291 4.997882 1.002604 50.787193 3.775063 -41.508507 -57.004147 41.998764 31.995502 71.996613 0.000489 2.415160 14.998732 -0.002847 -0.999614 -57.001446 -50.004776 -35.000286 71.996681 -0.000720 -2.416641 20.996786 0.000000 0.000000 
0.000000 1.995800 -32.004837 -63.002171 0.000000 0.000000 -6.002029 0.000000 0.000000 19.998167 0.000000 0.000000 30.999151 0.000000 0.000000 -13.251003 -0.001720 21.999132 0.000000 0.000000 0.000000 -76.018272 40.998165 -0.007638 -146.043335 -4.999469 -0.004302 3.331952 0.000000 0.000000 10.999558 0.000000 0.000000 83.997696 22.000610 29.998957 101.998291 4.997882 1.002604 49.732342 4.979355 -41.439701 -57.004147 41.998764 31.995502 71.996605 0.000496 2.447811 14.998732 -0.002847 -0.999614 -57.001446 -50.004776 -35.000286 71.996681 -0.000730 -2.449312 20.996786 0.000000 0.000000 
0.000000 1.995800 -32.004837 -63.002171 0.000000 0.000000 -6.002029 0.000000 0.000000 19.998167 0.000000 0.000000 30.999151 0.000000 0.000000 -13.973663 -0.001733 21.999130 0.000000 0.000000 0.000000 -76.018272 40.998165 -0.007638 -146.043335 -4.999469 -0.004302 3.998861 0.000000 0.000000 10.999558 0.000000 0.000000 83.997696 22.000610 29.998957 101.998291 4.997882 1.002604 48.675739 6.185887 -41.393028 -57.004147 41.998764 31.995502 71.996605 0.000502 2.480464 14.998732 -0.002847 -0.999614 -57.001446 -50.004776 -35.000286 71.996689 -0.000740 -2.481985 20.996786 0.000000 0.000000 
0.000000 1.995800 -32.004837 -63.002171 0.000000 0.000000 -6.002029 0.000000 0.000000 19.998167 0.000000 0.000000 30.999151 0.000000 0.000000 -14.695686 -0.001746 21.999128 0.000000 0.000000 0.000000 -76.018272 40.998165 -0.007638 -146.043335 -4.999469 -0.004302 4.665839 0.000000 0.000000 10.999558 0.000000 0.000000 83.997696 22.000610 29.998957 101.998291 4.997882 1.002604 47.616863 7.393788 -41.368675 -57.004147 41.998764 31.995502 71.996605 0.000509 2.513116 14.998730 -0.002847 -0.999614 -57.001446 -50.004776 -35.000286 71.996681 -0.000749 -2.514657 20.996786 0.000000 0.000000 
